<svg xmlns="http://www.w3.org/2000/svg" viewBox="0 0 200 60" fill="none">
  <!-- pot mark -->
  <g transform="translate(4, 11)">
    <path
      d="M6.5 12c0-2.2 1.8-4 4-4h11c2.2 0 4 1.8 4 4v10.5c0 2.5-2 4.5-4.5 4.5h-10c-2.5 0-4.5-2-4.5-4.5z"
      fill="#C9714B"
      transform="scale(1.3)"
    />
    <rect
      x="5.5"
      y="7"
      width="21"
      height="3.5"
      rx="1.75"
      fill="#9F5234"
      transform="scale(1.3)"
    />
    <path
      d="M8.5 17.5c0-.5.4-1 1-1h13c.6 0 1 .5 1 1v5.5c0 1.4-1.1 2.5-2.5 2.5h-10c-1.4 0-2.5-1.1-2.5-2.5z"
      fill="#3D5234"
      transform="scale(1.3)"
    />
    <ellipse
      cx="11"
      cy="14.5"
      rx="1.1"
      ry="2.2"
      fill="#FFFFFF"
      fill-opacity="0.3"
      transform="scale(1.3)"
    />
  </g>
  <!-- wordmark -->
  <text
    x="56"
    y="41"
    font-family="Instrument Serif, Iowan Old Style, Georgia, serif"
    font-size="34"
    fill="#211A12"
    letter-spacing="-0.5"
  >Pesa</text>
</svg>
